<svg width="82" height="119" viewBox="0 0 82 119" fill="none" xmlns="http://www.w3.org/2000/svg">
<path fill-rule="evenodd" clip-rule="evenodd" d="M5 119H77C79.7614 119 82 116.761 82 114V18C82 15.2386 79.7614 13 77 13H75.9563C73.4166 13 71.2803 11.0961 70.9892 8.57312L70.5108 4.42688C70.2197 1.90393 68.0834 0 65.5437 0H5C2.23858 0 0 2.23858 0 5V114C0 116.761 2.23858 119 5 119ZM10 50.5288C10 49.7004 10.6716 49.0288 11.5 49.0288H69C69.8284 49.0288 70.5 49.7004 70.5 50.5288C70.5 51.3572 69.8284 52.0288 69 52.0288H11.5C10.6716 52.0288 10 51.3572 10 50.5288ZM70.5 43.0288C70.5 43.8572 69.8284 44.5288 69 44.5288H11.5C10.6716 44.5288 10 43.8572 10 43.0288C10 42.2004 10.6716 41.5288 11.5 41.5288H69C69.8284 41.5288 70.5 42.2004 70.5 43.0288ZM9.89556 58.1414C9.83005 57.2711 10.5185 56.5288 11.3913 56.5288H68.8828C69.6676 56.5288 70.3197 57.1337 70.3786 57.9162C70.4441 58.7865 69.7556 59.5288 68.8828 59.5288H11.3913C10.6066 59.5288 9.95447 58.9239 9.89556 58.1414ZM35.6459 65.6801C35.6889 64.8655 35.04 64.1813 34.2242 64.1813H11.3014C10.5443 64.1813 9.9196 64.7739 9.87968 65.53C9.83668 66.3447 10.4856 67.0288 11.3014 67.0288H34.2242C34.9813 67.0288 35.606 66.4362 35.6459 65.6801Z" fill="url(#paint0_linear_481_934)"/>
<defs>
<linearGradient id="paint0_linear_481_934" x1="0" y1="59.5" x2="82" y2="59.5" gradientUnits="userSpaceOnUse">
<stop stop-color="#0097B2"/>
<stop offset="0.25" stop-color="#20A499"/>
<stop offset="1" stop-color="#4EB674"/>
</linearGradient>
</defs>
</svg>
