<svg width="129" height="96" viewBox="0 0 129 96" fill="none" xmlns="http://www.w3.org/2000/svg">
<path d="M0.5 5V3C0.5 1.34315 1.84315 0 3.5 0H40.4689C41.6956 0 42.7987 0.746852 43.2543 1.88583L43.7457 3.11417C44.2013 4.25315 45.3044 5 46.5311 5H117C118.657 5 120 6.34315 120 8V85C120 90.5229 115.523 95 110 95H10.0557C4.51115 95 0.0250616 90.4889 0.0558642 84.9444L0.5 5Z" fill="#040D12"/>
<path d="M0.5 5V3C0.5 1.34315 1.84315 0 3.5 0H40.4689C41.6956 0 42.7987 0.746852 43.2543 1.88583L43.7457 3.11417C44.2013 4.25315 45.3044 5 46.5311 5H117C118.657 5 120 6.34315 120 8V85C120 90.5229 115.523 95 110 95H10.0557C4.51115 95 0.0250616 90.4889 0.0558642 84.9444L0.5 5Z" fill="#E95313" fill-opacity="0.75"/>
<path d="M0.5 5V3C0.5 1.34315 1.84315 0 3.5 0H40.4689C41.6956 0 42.7987 0.746852 43.2543 1.88583L43.7457 3.11417C44.2013 4.25315 45.3044 5 46.5311 5H117C118.657 5 120 6.34315 120 8V85C120 90.5229 115.523 95 110 95H10.0557C4.51115 95 0.0250616 90.4889 0.0558642 84.9444L0.5 5Z" fill="url(#paint0_linear_481_764)" fill-opacity="0.9"/>
<path d="M8.70186 17.6667C8.87162 16.1483 10.1554 15 11.6833 15H125.646C127.435 15 128.826 16.5556 128.627 18.3333L120.994 86.6111C120.428 91.6724 116.149 95.5 111.056 95.5H8.94425C4.17398 95.5 0.463767 91.3519 0.993787 86.6111L8.70186 17.6667Z" fill="url(#paint1_linear_481_764)"/>
<defs>
<linearGradient id="paint0_linear_481_764" x1="60" y1="0" x2="60" y2="95" gradientUnits="userSpaceOnUse">
<stop stop-opacity="0"/>
<stop offset="0.78" stop-color="#040D12" stop-opacity="0.5"/>
<stop offset="1"/>
</linearGradient>
<linearGradient id="paint1_linear_481_764" x1="0" y1="55.25" x2="129" y2="55.25" gradientUnits="userSpaceOnUse">
<stop stop-color="#D97D12"/>
<stop offset="0.35" stop-color="#E95313"/>
<stop offset="1" stop-color="#ED28D9"/>
</linearGradient>
</defs>
</svg>
